<svg width="18" height="18" viewBox="0 0 18 18" fill="none" xmlns="http://www.w3.org/2000/svg">
<path d="M8.99984 0.666504C7.35166 0.666504 5.7405 1.15525 4.37009 2.07092C2.99968 2.9866 1.93158 4.28809 1.30084 5.81081C0.670115 7.33353 0.505087 9.00908 0.82663 10.6256C1.14817 12.2421 1.94185 13.727 3.10728 14.8924C4.27272 16.0578 5.75758 16.8515 7.37409 17.173C8.9906 17.4946 10.6662 17.3296 12.1889 16.6988C13.7116 16.0681 15.0131 15 15.9288 13.6296C16.8444 12.2592 17.3332 10.648 17.3332 8.99984C17.3332 7.90549 17.1176 6.82186 16.6988 5.81081C16.2801 4.79976 15.6662 3.8811 14.8924 3.10728C14.1186 2.33346 13.1999 1.71963 12.1889 1.30084C11.1778 0.882052 10.0942 0.666504 8.99984 0.666504ZM8.99984 2.33317C10.7121 2.33249 12.358 2.99561 13.5915 4.18317C12.3182 4.93001 10.9689 5.539 9.56651 5.99984C8.86858 4.79719 8.0684 3.65687 7.17484 2.5915C7.76814 2.42067 8.38244 2.33371 8.99984 2.33317ZM5.57484 3.2915C6.44791 4.29026 7.23148 5.36384 7.91651 6.49984C6.28076 6.90601 4.60193 7.11306 2.91651 7.1165H2.61651C3.08918 5.5162 4.14479 4.15134 5.57484 3.2915ZM3.99984 13.4248C2.91547 12.2071 2.32157 10.6303 2.33317 8.99984C2.33317 8.9165 2.33317 8.83317 2.33317 8.75817H2.89984C4.87265 8.74053 6.83434 8.46029 8.73318 7.92484C8.99984 8.43317 9.24984 8.95817 9.49151 9.49984C8.19275 9.95769 6.98318 10.6372 5.91651 11.5082L5.66651 11.7082C5.07244 12.2417 4.51558 12.8153 3.99984 13.4248ZM8.99984 15.6665C7.67158 15.6695 6.37334 15.2716 5.27484 14.5248C5.68054 14.0595 6.11471 13.6198 6.57484 13.2082L6.84151 12.9832C7.82748 12.1539 8.95732 11.5127 10.1748 11.0915C10.676 12.4465 11.0661 13.84 11.3415 15.2582C10.5913 15.5321 9.79844 15.6703 8.99984 15.6665ZM12.8582 14.4248C12.5855 13.1636 12.2292 11.922 11.7915 10.7082H12.0748C12.1077 10.7001 12.142 10.7001 12.1748 10.7082H12.2665H12.3498H12.7498C13.6268 10.7107 14.4972 10.86 15.3248 11.1498C14.8701 12.4751 14.0064 13.6219 12.8582 14.4248ZM12.7498 8.99984C12.5748 8.99984 12.3998 8.99984 12.2332 8.99984C12.1253 8.98624 12.0161 8.98624 11.9082 8.99984C11.6817 9.01375 11.4563 9.04158 11.2332 9.08317H11.1498C10.9082 8.52484 10.6582 7.98317 10.3832 7.4165C11.8754 6.90405 13.3085 6.23358 14.6582 5.4165C15.3277 6.49098 15.6775 7.73388 15.6665 8.99984C15.6665 9.1415 15.6665 9.28317 15.6665 9.42484C14.7221 9.13335 13.7382 8.98998 12.7498 8.99984Z" fill="white"/>
</svg>
