<svg width="20" height="20" viewBox="0 0 20 20" fill="none" xmlns="http://www.w3.org/2000/svg">
<path d="M13.1199 11.2746C12.8765 11.0114 12.6031 10.7775 12.3054 10.5778C13.5068 9.64889 14.3488 8.33193 14.6877 6.85156C14.7127 6.74458 14.7163 6.63371 14.6983 6.52533C14.6803 6.41694 14.641 6.31319 14.5828 6.22003C14.5246 6.12687 14.4485 6.04615 14.3589 5.98252C14.2693 5.91888 14.1681 5.87358 14.061 5.84922C13.9538 5.82487 13.8429 5.82194 13.7347 5.8406C13.6264 5.85926 13.5229 5.89915 13.4301 5.95797C13.3373 6.01679 13.257 6.09338 13.1939 6.18333C13.1309 6.27328 13.0862 6.37481 13.0625 6.4821C12.9047 7.17457 12.5977 7.82427 12.1629 8.38591C11.7282 8.94755 11.1762 9.40761 10.5454 9.734V6.6685C10.5403 6.60717 10.528 6.54665 10.509 6.48814C10.5035 6.43995 10.4939 6.39233 10.4803 6.34578C10.4447 6.26999 10.3978 6.20005 10.3412 6.13835C10.3263 6.12065 10.3188 6.09731 10.3025 6.08094C10.2415 6.02458 10.1724 5.97766 10.0975 5.94172C10.0762 5.93038 10.0604 5.9112 10.0381 5.90172C9.97421 5.88045 9.90807 5.86684 9.84101 5.86118C9.79963 5.84907 9.75733 5.84037 9.71452 5.83519L9.16927 5.8335H9.16683C8.97188 5.83256 8.78283 5.90034 8.63288 6.02492C8.48293 6.14949 8.38165 6.32291 8.34683 6.51473C8.31201 6.70654 8.34587 6.9045 8.44248 7.07383C8.53908 7.24316 8.69224 7.37306 8.87508 7.4407V11.5163C7.55452 10.1455 6.6801 8.40682 6.36695 6.52933C6.34867 6.42144 6.30932 6.31821 6.25115 6.22554C6.19298 6.13286 6.11713 6.05254 6.02792 5.98918C5.93871 5.92581 5.83789 5.88064 5.73123 5.85624C5.62456 5.83184 5.51413 5.82869 5.40625 5.84696C5.29836 5.86524 5.19513 5.90458 5.10245 5.96275C5.00977 6.02093 4.92946 6.09678 4.8661 6.18599C4.80273 6.2752 4.75756 6.37601 4.73316 6.48268C4.70876 6.58935 4.7056 6.69978 4.72388 6.80766C5.21087 9.70979 6.8292 12.3002 9.2238 14.0106C9.25795 14.0311 9.29355 14.049 9.3303 14.0643C9.35916 14.0813 9.38908 14.0964 9.41987 14.1095C9.5129 14.1467 9.61191 14.1667 9.71208 14.1685C9.83467 14.167 9.95537 14.138 10.0653 14.0836C10.0736 14.0797 10.0831 14.0815 10.0913 14.0774C10.165 14.039 10.2324 13.9897 10.2914 13.9313C10.3033 13.9197 10.3112 13.9055 10.3224 13.8933C10.3761 13.8343 10.421 13.7677 10.4556 13.6957C10.4672 13.6718 10.4778 13.6489 10.4871 13.6238C10.5237 13.5319 10.5435 13.4341 10.5454 13.3352L10.5458 11.5635C11.0621 11.7151 11.5274 12.0046 11.8914 12.4009L13.2647 13.8983C13.3386 13.9792 13.4277 14.0448 13.527 14.0912C13.6262 14.1376 13.7336 14.164 13.8431 14.1689C13.9526 14.1737 14.0619 14.1569 14.1649 14.1195C14.2678 14.082 14.3624 14.0246 14.4432 13.9505C14.5239 13.8765 14.5893 13.7872 14.6355 13.6879C14.6817 13.5885 14.7078 13.481 14.7124 13.3715C14.717 13.2621 14.7 13.1528 14.6623 13.0499C14.6246 12.947 14.567 12.8526 14.4928 12.772L13.1199 11.2746ZM12.5608 0.833496H7.44808C2.31705 0.833496 0.833496 2.31543 0.833496 7.43913V12.5522C0.833496 17.6833 2.31502 19.1668 7.43954 19.1668H12.5522C17.6833 19.1668 19.1668 17.6849 19.1668 12.5612V7.44808C19.1668 2.31705 17.6853 0.833496 12.5608 0.833496ZM17.5002 12.5612C17.5002 16.7612 16.7604 17.5002 12.5522 17.5002H7.43954C3.23869 17.5002 2.50016 16.7604 2.50016 12.5522V7.43913C2.50016 3.2391 3.23991 2.50016 7.44808 2.50016H12.5608C16.7616 2.50016 17.5002 3.23991 17.5002 7.44808V12.5612Z" fill="white"/>
</svg>
