<svg width="19" height="20" viewBox="0 0 19 20" fill="none" xmlns="http://www.w3.org/2000/svg">
<path d="M17.8353 8.33671C17.8005 8.14453 17.6994 7.97064 17.5496 7.8454C17.3997 7.72017 17.2107 7.65153 17.0154 7.65149H9.16668C9.05724 7.65146 8.94887 7.67299 8.84775 7.71486C8.74663 7.75673 8.65475 7.81811 8.57737 7.8955C8.49998 7.97289 8.4386 8.06477 8.39673 8.16588C8.35486 8.267 8.33332 8.37538 8.33335 8.48482V11.7083C8.33332 11.8177 8.35486 11.9261 8.39673 12.0272C8.4386 12.1283 8.49998 12.2202 8.57737 12.2976C8.65475 12.375 8.74663 12.4364 8.84775 12.4782C8.94887 12.5201 9.05724 12.5416 9.16668 12.5416H12.4687C12.2334 12.9387 11.9109 13.2771 11.5255 13.5312C10.8212 13.9777 10.0004 14.2054 9.16668 14.1855C8.30208 14.1756 7.46258 13.8935 6.7675 13.3792C6.07242 12.8649 5.55712 12.1446 5.29482 11.3207L5.29458 11.3193C5.00269 10.4638 5.00269 9.53563 5.29458 8.68012L5.29478 8.67874C5.55726 7.855 6.07264 7.13491 6.76771 6.62077C7.46278 6.10664 8.30219 5.8246 9.16668 5.81474C9.64703 5.80371 10.1248 5.88768 10.5726 6.06184C11.0204 6.23599 11.4294 6.49688 11.7761 6.82954C11.9336 6.98001 12.1437 7.06289 12.3614 7.06046C12.5792 7.05803 12.7874 6.97047 12.9415 6.81653L15.3316 4.42639C15.4108 4.3473 15.4732 4.25307 15.5152 4.14932C15.5571 4.04557 15.5777 3.93442 15.5757 3.82253C15.5738 3.71063 15.5493 3.60028 15.5037 3.49808C15.4581 3.39587 15.3924 3.3039 15.3104 3.22766C13.6472 1.66825 11.4465 0.810628 9.16668 0.833452C7.46663 0.828422 5.79898 1.29846 4.35179 2.19057C2.9046 3.08267 1.73544 4.36136 0.976134 5.88244L0.974909 5.88391C0.331182 7.16037 -0.0028013 8.57053 1.7698e-05 10.0001C0.00204538 11.4292 0.335783 12.8382 0.974951 14.1163L0.976176 14.1178C1.73547 15.6389 2.90463 16.9176 4.35182 17.8097C5.799 18.7018 7.46664 19.1718 9.16668 19.1668C11.4045 19.2234 13.5793 18.4224 15.2456 16.9276L15.2462 16.9272L15.2469 16.9265L15.247 16.9264L15.2471 16.9263C16.1503 16.0574 16.8617 15.0093 17.3359 13.8491C17.81 12.689 18.0362 11.4425 18.0001 10.1897C18.0005 9.56839 17.9453 8.94825 17.8353 8.33671ZM9.16668 2.50012C10.7259 2.48494 12.2483 2.9739 13.5071 3.89416L12.2957 5.10512C11.3772 4.46933 10.2837 4.13488 9.16668 4.14807C8.14687 4.15331 7.14688 4.43023 6.26963 4.95031C5.39238 5.47039 4.66957 6.21484 4.17559 7.10705L3.28458 6.41644L2.79708 6.03838C3.46773 4.95325 4.40541 4.0582 5.52055 3.43875C6.63569 2.8193 7.89105 2.49613 9.16668 2.50012ZM2.06622 12.4196C1.53345 10.8506 1.53345 9.14965 2.06622 7.58069L3.55141 8.73222C3.36152 9.56655 3.36152 10.4329 3.55141 11.2672L2.06622 12.4196ZM9.16668 17.5001C7.89103 17.5041 6.63566 17.1809 5.5205 16.5614C4.40535 15.9419 3.46766 15.0469 2.79702 13.9617L3.11236 13.7171L4.17559 12.8924C4.66935 13.7848 5.39209 14.5295 6.26937 15.0498C7.14665 15.57 8.14676 15.847 9.16668 15.8522C10.1214 15.8634 11.0653 15.649 11.9215 15.2265L13.3312 16.321C12.0913 17.1198 10.6413 17.5304 9.16668 17.5001ZM14.6049 15.1995L14.4524 15.0812L13.3046 14.1901C13.9065 13.5399 14.311 12.7319 14.471 11.8605C14.4934 11.7402 14.489 11.6165 14.4581 11.4981C14.4273 11.3797 14.3707 11.2695 14.2925 11.1755C14.2143 11.0814 14.1163 11.0057 14.0055 10.9538C13.8947 10.9018 13.7739 10.8749 13.6515 10.875H10V9.31815H16.2907C16.3192 9.60624 16.3334 9.89758 16.3334 10.1897C16.3822 12.0138 15.768 13.7936 14.6049 15.1995H14.6049Z" fill="white"/>
</svg>
