<svg width="20" height="16" viewBox="0 0 20 16" fill="none" xmlns="http://www.w3.org/2000/svg">
<path d="M19.1592 1.29168C19.1593 1.14448 19.1204 0.999891 19.0464 0.87263C18.9724 0.745368 18.8661 0.639981 18.7381 0.567201C18.6102 0.494422 18.4653 0.45685 18.3181 0.458313C18.1709 0.459775 18.0267 0.500219 17.9002 0.575525C17.4125 0.865847 16.8873 1.08818 16.3394 1.23636C15.5569 0.564886 14.5589 0.197445 13.5277 0.2012C12.3965 0.202503 11.3101 0.643361 10.4979 1.43068C9.68569 2.21801 9.21122 3.29017 9.17471 4.42077C6.94469 4.06515 4.92357 2.9012 3.49675 1.15088C3.41078 1.04658 3.30099 0.964479 3.17664 0.911506C3.05228 0.858532 2.91701 0.83624 2.78224 0.846509C2.64754 0.8576 2.51756 0.901336 2.40356 0.973934C2.28956 1.04653 2.19496 1.14581 2.12794 1.26318C1.78421 1.86302 1.58679 2.53547 1.55173 3.22593C1.51666 3.91639 1.64493 4.60538 1.92611 5.23697L1.92449 5.23859C1.79811 5.31643 1.69381 5.42539 1.62157 5.55505C1.54933 5.68471 1.51157 5.83073 1.51189 5.97916C1.51036 6.1016 1.5177 6.22399 1.53386 6.34537C1.61897 7.39392 2.08368 8.37541 2.84083 9.10578C2.78946 9.20364 2.75811 9.31074 2.74861 9.42085C2.73911 9.53096 2.75165 9.64185 2.78549 9.74706C3.11558 10.7755 3.81757 11.6438 4.75408 12.1819C3.80261 12.5499 2.77526 12.6782 1.76254 12.5555C1.5751 12.532 1.38523 12.5729 1.22408 12.6714C1.06292 12.77 0.940058 12.9204 0.875631 13.098C0.811205 13.2756 0.809044 13.4698 0.869503 13.6488C0.929962 13.8277 1.04945 13.9809 1.20837 14.083C2.95011 15.2048 4.9781 15.8012 7.04984 15.8009C9.39923 15.8274 11.6915 15.0766 13.57 13.6655C15.4486 12.2543 16.8081 10.2619 17.4372 7.99817C17.7314 7.01204 17.8816 5.98857 17.8832 4.95947C17.8832 4.90495 17.8832 4.8488 17.8823 4.79265C18.3174 4.32343 18.6545 3.77207 18.8737 3.1709C19.093 2.56973 19.19 1.93084 19.1592 1.29168ZM16.4037 3.96827C16.266 4.13105 16.1964 4.3406 16.2092 4.55339C16.2173 4.69089 16.2165 4.82922 16.2165 4.95947C16.2148 5.82909 16.0873 6.69389 15.8381 7.52702C15.3243 9.45319 14.179 11.1512 12.5856 12.3492C10.9922 13.5472 9.04291 14.1757 7.04984 14.1343C6.33391 14.1345 5.62044 14.0504 4.92419 13.8836C5.81204 13.5975 6.64219 13.1564 7.37618 12.5807C7.51137 12.4743 7.6103 12.3286 7.65942 12.1637C7.70853 11.9988 7.70541 11.8228 7.65049 11.6597C7.59557 11.4966 7.49153 11.3546 7.35266 11.253C7.21379 11.1514 7.04688 11.0953 6.87484 11.0923C6.1822 11.0815 5.52079 10.8023 5.02995 10.3135C5.15447 10.2899 5.27817 10.2606 5.40105 10.2256C5.58106 10.1744 5.73859 10.064 5.84827 9.91237C5.95795 9.76072 6.0134 9.57657 6.0057 9.38957C5.99799 9.20257 5.92758 9.0236 5.80579 8.88149C5.684 8.73937 5.51793 8.64238 5.33432 8.60612C4.93227 8.52672 4.55394 8.35568 4.22875 8.10628C3.90356 7.85688 3.64026 7.53584 3.45932 7.16813C3.60993 7.18869 3.76149 7.20146 3.91342 7.20638C4.0939 7.20911 4.27058 7.15436 4.4179 7.05005C4.56522 6.94575 4.67554 6.79729 4.73292 6.62614C4.7879 6.45344 4.78507 6.26753 4.72486 6.09658C4.66465 5.92564 4.55034 5.77899 4.39926 5.67887C4.03272 5.43468 3.73246 5.10339 3.52539 4.71467C3.31832 4.32595 3.21089 3.89194 3.21274 3.45151C3.21274 3.39617 3.21436 3.34083 3.21762 3.28631C5.08534 5.02819 7.50789 6.05502 10.0585 6.18588C10.1872 6.19096 10.3154 6.16671 10.4334 6.11497C10.5514 6.06323 10.6561 5.98535 10.7396 5.88722C10.8223 5.78814 10.8808 5.67122 10.9106 5.54568C10.9404 5.42014 10.9406 5.2894 10.9113 5.16375C10.8636 4.96489 10.8393 4.76114 10.8389 4.55665C10.8396 3.84376 11.1231 3.16029 11.6272 2.65621C12.1313 2.15212 12.8148 1.86859 13.5277 1.86784C13.8945 1.86686 14.2575 1.94192 14.5938 2.0883C14.9301 2.23467 15.2324 2.44917 15.4816 2.71827C15.5777 2.82167 15.6987 2.89876 15.833 2.94221C15.9673 2.98566 16.1105 2.99403 16.249 2.96651C16.5913 2.89989 16.9287 2.81017 17.2589 2.69796C17.0337 3.15877 16.7459 3.58625 16.4037 3.96827Z" fill="white"/>
</svg>
