<svg width="18" height="20" viewBox="0 0 18 20" fill="none" xmlns="http://www.w3.org/2000/svg">
<path d="M16.4325 8.87744C16.1704 8.73584 13.9235 7.43213 13.0804 6.94141L13.078 6.93974L2.86559 1.04379C2.69161 0.937587 2.49652 0.870679 2.29398 0.847748C2.09143 0.824818 1.88633 0.84642 1.693 0.911044C1.67119 0.918877 1.65069 0.92676 1.62948 0.936469C1.58024 0.952519 1.5321 0.971788 1.48539 0.994152C1.29012 1.11086 1.12993 1.27805 1.02166 1.47812C0.913396 1.67818 0.861057 1.90373 0.870153 2.13104V17.9522C0.863956 18.1639 0.914109 18.3735 1.01548 18.5596C1.11686 18.7456 1.26582 18.9013 1.44714 19.0109C1.48896 19.0313 1.53204 19.0491 1.57613 19.064C1.60024 19.0752 1.62322 19.0849 1.64809 19.0936C1.76744 19.1369 1.89313 19.1601 2.02005 19.1623C2.2638 19.1597 2.50259 19.0932 2.7126 18.9694C3.03649 18.7814 13.078 12.9839 13.078 12.9839L16.4284 11.0495C16.6356 10.9457 16.8104 10.7873 16.934 10.5914C17.0577 10.3954 17.1254 10.1695 17.1299 9.93782C17.1197 9.7147 17.0496 9.49845 16.9268 9.31185C16.8041 9.12524 16.6333 8.97517 16.4325 8.87744ZM2.53682 16.5324V3.41816L9.15359 9.96739L2.53682 16.5324ZM6.71849 14.731L10.3381 11.1397L11.296 12.0879C10.2422 12.6965 8.4616 13.7246 6.71849 14.7311V14.731ZM10.3367 8.79354L6.67176 5.16605L11.2998 7.83797L10.3367 8.79354ZM12.7923 11.2241L11.5211 9.96597L12.7943 8.70279C13.3945 9.05135 14.33 9.5939 14.9742 9.96469L12.7923 11.2241Z" fill="white"/>
</svg>
