<svg width="16" height="16" viewBox="0 0 16 16" fill="none" xmlns="http://www.w3.org/2000/svg">
<path d="M11.6121 9.58733C11.4145 9.4881 10.4399 9.008 10.2582 8.94238C10.0766 8.87597 9.94458 8.84316 9.81255 9.04161C9.68052 9.23925 9.30044 9.68655 9.18441 9.81858C9.06919 9.95061 8.95316 9.96661 8.75552 9.86739C8.17143 9.63485 7.63232 9.30235 7.16237 8.88477C6.72893 8.48413 6.35734 8.02139 6.05973 7.51167C5.9445 7.31323 6.04772 7.20601 6.14695 7.10758C6.23577 7.01876 6.34539 6.87633 6.44381 6.76031C6.52533 6.66014 6.59215 6.54886 6.64225 6.42984C6.66862 6.37514 6.6809 6.31471 6.67796 6.25406C6.67503 6.19341 6.65697 6.13446 6.62545 6.08256C6.57584 5.98334 6.17975 5.00792 6.01492 4.61104C5.85408 4.22535 5.69085 4.27736 5.56842 4.27096C5.45319 4.26536 5.32117 4.26376 5.18914 4.26376C5.0887 4.26656 4.98993 4.29012 4.89905 4.33294C4.80816 4.37577 4.72712 4.43694 4.66102 4.51261C4.43699 4.72477 4.2596 4.98126 4.14016 5.26575C4.02072 5.55023 3.96184 5.85648 3.96727 6.16498C4.03152 6.91253 4.31269 7.62505 4.77625 8.21503C5.62597 9.48895 6.79239 10.52 8.16099 11.2069C8.53016 11.3655 8.90728 11.5049 9.29083 11.6246C9.6952 11.7473 10.1227 11.7739 10.5391 11.7022C10.8149 11.6463 11.0762 11.5338 11.3063 11.3719C11.5365 11.2099 11.7305 11.002 11.8762 10.7612C12.0062 10.4651 12.0463 10.1373 11.9914 9.81858C11.9426 9.73536 11.8106 9.68655 11.6121 9.58733ZM13.6062 2.32254C12.2458 0.962519 10.4376 0.143186 8.51818 0.0170745C6.59874 -0.109037 4.69887 0.466668 3.17228 1.63701C1.64569 2.80735 0.596417 4.49256 0.219803 6.37892C-0.156811 8.26527 0.164902 10.2242 1.12505 11.891L0 15.9999L4.20412 14.8981C5.3669 15.5312 6.66977 15.863 7.99375 15.8631H7.99695C9.56537 15.8623 11.0984 15.3966 12.4023 14.525C13.7061 13.6533 14.7224 12.4147 15.3227 10.9657C15.9229 9.51668 16.0802 7.92227 15.7747 6.38389C15.4692 4.84552 14.7146 3.43221 13.6062 2.32253V2.32254ZM11.4993 13.5162C10.4496 14.1742 9.23584 14.5233 7.99695 14.5236H7.99375C6.81341 14.5235 5.65483 14.206 4.63942 13.6042L4.39856 13.4618L1.90362 14.1163L2.56936 11.6838L2.41333 11.4341C1.72081 10.3298 1.37133 9.04483 1.40906 7.74184C1.44679 6.43885 1.87005 5.17631 2.62531 4.11386C3.38057 3.05142 4.43392 2.23679 5.65216 1.77299C6.87039 1.30918 8.1988 1.21703 9.4694 1.50819C10.74 1.79935 11.8957 2.46074 12.7905 3.40873C13.6852 4.35672 14.2787 5.54873 14.496 6.83403C14.7133 8.11933 14.5445 9.4402 14.0111 10.6296C13.4777 11.819 12.6036 12.8235 11.4993 13.5162Z" fill="white"/>
</svg>
